<svg xmlns="http://www.w3.org/2000/svg" viewBox="0 0 24 24" fill="none">
  <path fill="#6366f1" d="M12 15.5a3.5 3.5 0 1 1 0-7 3.5 3.5 0 0 1 0 7Z"/>
  <path fill="#6366f1" fill-rule="evenodd" clip-rule="evenodd" d="M9.61 2.42a2 2 0 0 1 4.78 0l.28 1.13a7.5 7.5 0 0 1 1.84 1.06l1.12-.33a2 2 0 0 1 2.39 2.39l-.33 1.12a7.5 7.5 0 0 1 1.06 1.84l1.13.28a2 2 0 0 1 0 4.78l-1.13.28a7.5 7.5 0 0 1-1.06 1.84l.33 1.12a2 2 0 0 1-2.39 2.39l-1.12-.33a7.5 7.5 0 0 1-1.84 1.06l-.28 1.13a2 2 0 0 1-4.78 0l-.28-1.13a7.5 7.5 0 0 1-1.84-1.06l-1.12.33a2 2 0 0 1-2.39-2.39l.33-1.12a7.5 7.5 0 0 1-1.06-1.84L2.42 14.39a2 2 0 0 1 0-4.78l1.13-.28A7.5 7.5 0 0 1 4.61 7.49L4.28 6.37a2 2 0 0 1 2.39-2.39l1.12.33a7.5 7.5 0 0 1 1.84-1.06l.28-1.13ZM12 8a4 4 0 1 0 0 8 4 4 0 0 0 0-8Z"/>
</svg>
